<svg xmlns="http://www.w3.org/2000/svg" xmlns:xlink="http://www.w3.org/1999/xlink" version="1.1" x="0px" y="0px" viewBox="0 0 100 125" enable-background="new 0 0 100 100" xml:space="preserve"><path d="M72.794,10.717c-1.78-0.575-3.636-0.889-5.521-1.03c-7.496-2.658-16.507-1.725-23.937-0.067  c-9.888,2.206-18.351,8.355-24.861,15.945c-2.634,2.413-5.029,5.071-7.117,7.92c-12.781,17.454-5.558,47.03,15.073,55.132  c19.41,7.625,46.162,2.188,58.58-15.262c0.496-0.696,0.947-1.424,1.378-2.164c1.377-1.738,2.621-3.586,3.701-5.544  C100.32,47.123,94.565,17.752,72.794,10.717z M65.335,82.758c-12.428,5.146-27.357,5.524-39.198-1.31  c-5.899-3.404-10.215-9.071-13.564-14.862c-4.201-7.265-3.984-15.314-1.426-23.067c1.835-5.564,4.944-10.823,8.855-15.431  c4.317-3.919,9.352-7.104,14.348-9.442c6.28-2.939,13.25-4.168,20.048-5.183c4.349-0.648,8.647-1.026,12.816-0.599  c1.448,0.6,2.811,1.336,4.049,2.236c4.334,4.185,9.809,6.796,13.396,11.852c5.393,7.599,6.062,16.211,4.635,25.132  c-0.981,6.132-2.506,12.023-5.469,17.479C79.073,75.372,72.566,79.767,65.335,82.758z M43.896,12.415  c1.821-0.49,3.712-0.891,5.641-1.167C47.644,11.583,45.763,11.967,43.896,12.415z M85.116,22.804  c-1.098-1.188-2.286-2.253-3.53-3.246c-0.002-0.26-0.075-0.525-0.231-0.779C82.763,19.988,84.011,21.339,85.116,22.804z   M26.343,85.366c-4.935-2.178-8.962-5.864-11.989-10.345c4.091,4.963,9.354,9.06,14.709,11.222c1.319,0.533,2.668,0.998,4.037,1.398  C30.766,87.065,28.497,86.316,26.343,85.366z M32.712,42.688c-1.41,0.821-3.291-0.046-3.848-1.983  c-0.029-0.098-0.039-0.206-0.066-0.304c-0.295-0.55-0.511-1.132-0.64-1.613c-0.621-2.305-0.521-6.134,1.555-7.737  c1.365-1.056,2.48-0.52,3.252,0.518c0.02,0.015,0.04,0.03,0.062,0.045c0.006,0.004,0.012,0.005,0.018,0.009  c1.26,0.744,1.822,2.632,2.12,3.956C35.688,37.921,35.974,42.305,32.712,42.688z M70.428,39.327  c-0.595,0.514-1.297,0.832-2.011,0.959c-0.812,0.293-1.668,0.222-2.342-0.334c-0.054-0.029-0.104-0.062-0.156-0.092  c-0.024-0.014-0.05-0.03-0.075-0.044c-0.05-0.032-0.098-0.064-0.146-0.1c-0.083-0.056-0.162-0.12-0.237-0.19  c-0.063-0.054-0.121-0.115-0.179-0.175c-0.014-0.016-0.027-0.029-0.041-0.044c-0.362-0.389-0.649-0.881-0.817-1.491  c-0.247-0.901-0.292-1.915-0.164-2.926c0.105-1.643,0.558-3.317,1.213-4.547c0.178-0.33,0.473-0.537,0.803-0.642  c0.038-0.038,0.073-0.081,0.113-0.117c2.13-1.883,5.012-0.464,5.72,2.083C72.771,34.05,72.428,37.601,70.428,39.327z M66.561,44.646  c-9.653,3.047-19.573,4.72-29.692,4.811c0.147-0.219,0.308-0.432,0.482-0.632c1.254-1.43-0.833-3.535-2.095-2.095  c-2.02,2.302-2.752,5.316-2.931,8.311c-0.077,1.291,1.249,1.699,2.153,1.248c2.846,5.565,10.448,8.646,16.503,7.627  c8.105-1.363,16.893-9.263,17.454-17.842C68.497,45.129,67.44,44.368,66.561,44.646z M53.151,60.409  c-5.789,2.197-16.136-0.879-16.811-7.979c9.774-0.031,19.397-1.521,28.758-4.261C63.593,53.567,57.95,58.591,53.151,60.409z"/></svg>
