<svg xmlns="http://www.w3.org/2000/svg" viewBox="0 0 36 45" x="0px" y="0px"><title>Монтажная область 57</title><path d="M32.04759,13.6863l.02941-.08463a1.69372,1.69372,0,0,0-1.42371-1.63287c-.04379-.00055-.08654-.00558-.12951-.0093a1.12516,1.12516,0,0,0-.63193-.25541q-1.96818-.07709-5.28727-.30506a13.10222,13.10222,0,0,0,1.94351-1.806l.02941-.08463c2.21391-2.54936,2.666-4.66813,1.47034-6.41144-.08457-.0293-.13979-.14345-.22436-.17276-1.6812-1.43781-3.46879-1.206-5.47681.75116L22.31726,3.76A13.21645,13.21645,0,0,0,20.063,7.24359a4.09469,4.09469,0,0,0-.27363.6018A13.06184,13.06184,0,0,0,18.665,5.80949a6.11414,6.11414,0,0,0-5.2051-2.758.475.475,0,0,0-.3126.08091Q10.2012,4.24179,11.39343,7.35905q.16557.34179.33114.684l.05521.11393a14.0721,14.0721,0,0,0,2.70839,2.68887c-.93162-.01749-1.85909-.03357-2.77055-.05511-1.13292-.01443-2.77345-.20544-5.065-.4332q-.42486-.00525-.84962-.01093a1.45239,1.45239,0,0,0-1.17944.74547,1.11645,1.11645,0,0,0-.39472.50909l-.02941.08452q-.35295,1.01505-.341,6.70917a1.79087,1.79087,0,0,0,1.0853,1.51523,2.826,2.826,0,0,0,1.37812.30068c.00563.30637.00678.75641.01612,1.41693l-.15668,9.99745s.23929,1.22121.7727,1.59625a5.09652,5.09652,0,0,0,2.6815.74263c.1692.05882.28319.00361.36787.03313,6.09108-.06353,9.40516-.0492,10.1151-.18172a.31269.31269,0,0,1,.0791-.02056,63.68549,63.68549,0,0,0,8.13442.126,1.24072,1.24072,0,0,0,.42664-.13624,1.28358,1.28358,0,0,0,.74657-.78352,11.39024,11.39024,0,0,0,.37476-2.71468c.24951-4.7906.32151-7.94012.23186-9.347.12289-.00722.2518-.01334.37-.02165l-.28324-.00361a1.45262,1.45262,0,0,0,1.57049-.97126,4.73559,4.73559,0,0,0,.26832-1.04463A32.45195,32.45195,0,0,0,32.04759,13.6863ZM13.6666,6.82175,13.501,6.47952a.83266.83266,0,0,1,.30156-1.18644A4.1062,4.1062,0,0,1,16.977,7.11894,11.00785,11.00785,0,0,1,18.16181,9.712L18.217,9.826a3.38565,3.38565,0,0,1,.14045.98318A16.74386,16.74386,0,0,1,13.6666,6.82175Zm-6.715,11.13141c-.114.05522-.114.05522-.19862.02581-.243-.03357-.40991-.042-.54128-.0515.01558-2.80489.04127-4.55071.15515-5.28306.02159.00087.035.00437.05806.0047a42.10383,42.10383,0,0,0,5.23419.49213c1.16829-.00984,2.33062.00416,3.49476.02931a11.62429,11.62429,0,0,0-.0333,1.74309,28.0988,28.0988,0,0,0,.29,3.0943Zm3.30883,13.66775c-.08458-.02941-.19862.0257-.28325-.0036a4.54549,4.54549,0,0,1-1.2995-.23858l.15406-9.83224c.00678-.52286.00536-.95759-.00492-1.31535l6.84662.04417a6.05635,6.05635,0,0,0-.09956,1.2445c-.01448,1.13287.01886,2.94626-.03963,5.29662a44.42121,44.42121,0,0,0,.23125,4.78972C14.3012,31.61381,12.46977,31.618,10.26046,31.62091Zm10.08563-.09709a1.52623,1.52623,0,0,0-.34021.00186c-.27313.02788-.91785.04723-1.9399.0609-.15111-1.54026-.23519-3.06883-.26592-4.74106.08791-2.435.05456-4.24839.06911-5.38125.02864-.3184.06068-.64685.10835-1.02014.83885.08069,1.82307.18129,2.96583.28975-.00508.11426-.00858.23738-.01033.37329l-.02941.08452q.01689,1.99713-.08725,6.7973c.05652,1.55634.09632,2.70484.15717,3.56326C20.763,31.54252,20.565,31.53421,20.34609,31.52382ZM17.70538,18.12111a22.39713,22.39713,0,0,1-.37422-3.29232,7.58256,7.58256,0,0,1,.07588-1.57372c.23033.01006.46109.02011.692.0316a1.24243,1.24243,0,0,0,.71661.03269c.27734.01574.55047.01957.829.03783q.84186.0633,1.632.12213c-.003.13055-.00984.27215-.02465.43659-.03663.651.0334,1.81351.12563,3.45753a6.15185,6.15185,0,0,0,.01848.76516,1.03311,1.03311,0,0,0,.046.30528C19.9541,18.30283,18.7061,18.195,17.70538,18.12111Zm3.52674-7.69094c.37766-1.079.99072-2.307,1.03063-2.42165a20.67,20.67,0,0,1,1.87916-2.9503c.89238-.8698,1.64146-1.11165,2.21046-.81185.46377.745.04729,1.91607-1.36778,3.57048a25.62613,25.62613,0,0,1-2.29131,1.95357C22.1111,10.05219,21.63624,10.26551,21.23212,10.43017Zm6.496,19.77207a8.15927,8.15927,0,0,1-.0943,1.47706c-.95661.05391-2.4099.03794-4.3762-.03225-.00137-.01947.00792-.03783.00535-.0573a33.575,33.575,0,0,1-.15132-3.6562c.06937-3.20014.09851-5.466.11666-6.882l-.02935.08452c.00092-.07413.002-.14761.00333-.21824q2.67573.1194,4.71411.096A90.83845,90.83845,0,0,1,27.72808,30.20224Zm2.136-11.62344c-1.608.06014-3.71945.05861-6.28811-.03258a1.35312,1.35312,0,0,0,.08589-.37853q.00549-.42478.01093-.84968c-.09217-1.64414-.1622-2.80642-.155-3.3729a.83444.83444,0,0,0,.03712-.2997c2.33145.16707,4.23182.28975,5.66335.35579a1.05141,1.05141,0,0,0,.67025.16729l.01891.00656A25.17148,25.17148,0,0,1,29.86408,18.5788Z"/><text x="0" y="51" fill="#000000" font-size="5px" font-weight="bold" font-family="'Helvetica Neue', Helvetica, Arial-Unicode, Arial, Sans-serif">Created by Doodle Icons</text><text x="0" y="56" fill="#000000" font-size="5px" font-weight="bold" font-family="'Helvetica Neue', Helvetica, Arial-Unicode, Arial, Sans-serif">from the Noun Project</text></svg>